<?xml version="1.0" standalone="no"?>
<svg xmlns="http://www.w3.org/2000/svg" viewBox="0 0 121.418 29" width="121.418" height="29"><g fill="#008080" color="#008080" transform="translate(0, 0) scale(0.29)"><svg width="100.0" height="100.0" x="0.0" y="0.0" viewBox="0 0 100 100"><g><path fill="currentColor" d="M73.25,10.355H21.787c-3.486,0-6.322,2.837-6.322,6.322v67.659c0,3.484,2.836,6.32,6.322,6.32H73.25   c3.486,0,6.322-2.836,6.322-6.32V16.677C79.572,13.192,76.736,10.355,73.25,10.355z M75.803,84.336   c0,1.406-1.145,2.551-2.553,2.551H21.787c-1.406,0-2.551-1.145-2.551-2.551V16.677c0-1.406,1.145-2.551,2.551-2.551H73.25   c1.408,0,2.553,1.145,2.553,2.551V84.336z"></path><rect x="21.787" y="49.95" fill="currentColor" width="51.463" height="3.771"></rect><rect x="21.787" y="57.27" fill="currentColor" width="51.463" height="3.771"></rect><rect x="21.787" y="64.59" fill="currentColor" width="51.463" height="3.771"></rect><rect x="21.787" y="71.91" fill="currentColor" width="51.463" height="3.771"></rect><rect x="21.787" y="79.23" fill="currentColor" width="51.463" height="3.77"></rect><path fill="currentColor" d="M28.417,40.237c0.465,0,0.851-0.167,1.156-0.502c0.306-0.334,0.458-0.825,0.458-1.473v-4.529H33   c1.986,0,3.481-0.42,4.485-1.26c1.004-0.841,1.506-2.075,1.506-3.705c0-0.764-0.124-1.451-0.37-2.062   c-0.248-0.61-0.61-1.127-1.086-1.549c-0.477-0.422-1.043-0.724-1.697-0.906c-0.662-0.188-1.607-0.283-2.838-0.283h-4.156   c-0.714,0-1.234,0.152-1.562,0.458s-0.491,0.815-0.491,1.527v12.331c0,0.641,0.149,1.126,0.448,1.457   C27.537,40.071,27.929,40.237,28.417,40.237z M30.032,26.401h2.183c1.447,0,2.404,0.236,2.869,0.709   c0.415,0.443,0.623,1.019,0.623,1.724c0,0.59-0.135,1.066-0.404,1.43c-0.27,0.364-0.66,0.626-1.173,0.786s-1.151,0.24-1.915,0.24   h-2.183V26.401z"></path><path fill="currentColor" d="M42.439,39.697c0.299,0.179,0.742,0.268,1.331,0.268h4.224c0.734,0,1.395-0.048,1.98-0.143   c0.585-0.094,1.133-0.258,1.641-0.49c0.51-0.233,0.979-0.542,1.408-0.928c0.545-0.502,0.994-1.071,1.342-1.708   c0.35-0.637,0.607-1.352,0.775-2.145s0.25-1.669,0.25-2.629c0-2.91-0.832-5.078-2.498-6.504c-0.641-0.561-1.354-0.942-2.139-1.146   c-0.785-0.203-1.728-0.305-2.826-0.305h-4.223c-0.698,0-1.204,0.156-1.517,0.469c-0.313,0.313-0.47,0.818-0.47,1.517v11.73   c0,0.517,0.046,0.938,0.137,1.261C41.946,39.268,42.14,39.518,42.439,39.697z M44.96,26.532h2.138c0.989,0,1.833,0.107,2.532,0.321   c0.697,0.215,1.285,0.715,1.762,1.501c0.477,0.785,0.715,1.968,0.715,3.546c0,2.241-0.543,3.819-1.625,4.736   c-0.24,0.211-0.524,0.374-0.852,0.491c-0.328,0.116-0.645,0.188-0.949,0.218c-0.307,0.029-0.729,0.044-1.267,0.044H44.96V26.532z"></path><path fill="currentColor" d="M59.801,40.237c0.473,0,0.859-0.162,1.162-0.485c0.301-0.323,0.453-0.82,0.453-1.489v-5.271h5.336   c0.486,0,0.854-0.109,1.102-0.328c0.246-0.218,0.371-0.513,0.371-0.884s-0.123-0.667-0.365-0.889   c-0.244-0.223-0.613-0.333-1.107-0.333h-5.336v-4.092h6.383c0.516,0,0.9-0.115,1.15-0.344c0.252-0.229,0.377-0.533,0.377-0.911   c0-0.371-0.125-0.672-0.377-0.9c-0.25-0.229-0.635-0.344-1.15-0.344H60.16c-0.459,0-0.834,0.067-1.129,0.201   c-0.295,0.135-0.512,0.35-0.65,0.645c-0.137,0.294-0.207,0.675-0.207,1.14v12.31c0,0.662,0.15,1.156,0.453,1.483   S59.32,40.237,59.801,40.237z"></path></g></svg></g><line x1="41" y1="1" x2="41" y2="28" stroke="#000000" stroke-linecap="round"></line><path fill="#000000" fill-rule="nonzero" d="M9.85 17.17Q8.99 17.86 7.62 18.23Q6.25 18.61 4.25 18.61Q2.25 18.61 0 18.25L0 18.25L0 2.80Q2.27 2.44 3.94 2.44Q5.61 2.44 6.69 2.75Q7.76 3.07 8.44 3.61L8.44 3.61Q9.77 4.65 9.77 6.31Q9.77 7.97 8.57 9.06L8.57 9.06Q10.00 9.50 10.78 10.75L10.78 10.75Q11.50 11.86 11.50 13.21Q11.50 14.57 11.10 15.53Q10.71 16.49 9.85 17.17ZM3.11 4.97L3.11 8.63Q3.60 8.71 4.34 8.71Q5.07 8.71 5.55 8.51Q6.02 8.32 6.28 8.03L6.28 8.03Q6.70 7.55 6.70 6.69L6.70 6.69Q6.70 4.90 4.59 4.90L4.59 4.90Q3.70 4.90 3.11 4.97L3.11 4.97ZM4.84 11.13L4.84 11.13Q3.86 11.13 3.11 11.26L3.11 11.26L3.11 15.87Q3.93 16.08 4.83 16.08Q5.73 16.08 6.42 15.86Q7.10 15.64 7.57 15.27L7.57 15.27Q8.52 14.50 8.52 13.30L8.52 13.30Q8.52 11.13 4.84 11.13ZM16.50 9.79L16.50 17.00Q16.50 18.01 16.55 18.32L16.55 18.32L13.63 18.32L13.63 6.07L16.50 6.07L16.50 6.97Q17.50 5.84 18.59 5.84Q19.69 5.84 20.32 6.11L20.32 6.11L20.11 9.26L20.06 9.29Q19.65 8.57 18.36 8.57L18.36 8.57Q17.87 8.57 17.36 8.90Q16.85 9.23 16.50 9.79L16.50 9.79ZM24.01 4.48L21.38 2.58Q22.31 1.11 23.33 0L23.33 0L25.85 1.98Q25.35 2.60 24.91 3.20L24.91 3.20Q24.91 3.20 24.01 4.48L24.01 4.48ZM24.46 6.07L24.46 17.00Q24.46 18.01 24.50 18.32L24.50 18.32L21.53 18.32L21.53 6.07L24.46 6.07ZM30.84 10.13L30.84 16.82Q30.84 17.85 30.94 18.32L30.94 18.32L28.00 18.32L28.00 6.07L30.84 6.07L30.84 7.11Q32.39 5.84 34.15 5.84L34.15 5.84Q36.07 5.84 37.22 7.14Q38.37 8.45 38.37 10.58L38.37 10.58L38.37 15.25Q38.37 17.23 38.43 17.63Q38.48 18.02 38.58 18.14Q38.68 18.26 38.75 18.35L38.75 18.35L38.73 18.40Q37.78 18.32 37.35 18.32L37.35 18.32L36.53 18.32Q36.15 18.32 35.52 18.35L35.52 18.35L35.52 11.96Q35.52 8.53 33.43 8.53L33.43 8.53Q31.89 8.53 30.84 10.13L30.84 10.13ZM44.72 7.42L47.64 7.42Q47.54 7.76 47.54 9.13L47.54 9.13L47.54 10.16L44.72 10.16L44.72 18.32L41.85 18.32L41.85 10.16L40.13 10.16Q40.14 9.39 40.15 8.79L40.15 8.79L40.17 7.54L40.17 7.42L41.85 7.42L41.85 6.69Q41.85 3.88 43.16 2.17L43.16 2.17Q44.53 0.40 46.93 0.40L46.93 0.40Q47.95 0.40 48.28 0.54L48.28 0.54L48.29 3.48L48.27 3.54Q47.82 3.09 47.14 3.09Q46.45 3.09 46.03 3.32Q45.61 3.55 45.32 3.97L45.32 3.97Q44.72 4.82 44.72 6.28L44.72 6.28L44.72 7.42ZM49.22 12.29L49.22 12.29Q49.22 10.92 49.69 9.75Q50.16 8.58 51.01 7.70L51.01 7.70Q52.84 5.84 55.79 5.84L55.79 5.84Q58.29 5.84 59.80 7.49L59.80 7.49Q61.29 9.08 61.29 11.50L61.29 11.50Q61.29 12.42 61.15 12.76L61.15 12.76Q59.98 13.09 56.38 13.09L56.38 13.09L52.25 13.09Q52.56 14.34 53.67 15.04Q54.79 15.74 56.57 15.74L56.57 15.74Q58.43 15.74 59.77 15.07L59.77 15.07Q60.12 14.89 60.29 14.74L60.29 14.74Q60.27 15.23 60.23 15.75L60.23 15.75L60.11 17.58Q59.21 18.19 57.22 18.42L57.22 18.42Q56.64 18.49 56.10 18.49L56.10 18.49Q53.12 18.49 51.18 16.76L51.18 16.76Q49.22 15.01 49.22 12.29ZM58.17 10.82L58.17 10.82Q57.69 8.30 55.43 8.30L55.43 8.30Q53.65 8.30 52.72 9.83L52.72 9.83Q52.44 10.30 52.29 10.86L52.29 10.86Q52.57 10.88 52.98 10.89L52.98 10.89L53.85 10.89Q54.28 10.90 54.68 10.90L54.68 10.90L55.35 10.90Q55.95 10.90 56.52 10.89L56.52 10.89L57.48 10.85Q57.87 10.84 58.17 10.82ZM66.60 9.79L66.60 17.00Q66.60 18.01 66.64 18.32L66.64 18.32L63.73 18.32L63.73 6.07L66.60 6.07L66.60 6.97Q67.59 5.84 68.69 5.84Q69.79 5.84 70.42 6.11L70.42 6.11L70.21 9.26L70.16 9.29Q69.75 8.57 68.46 8.57L68.46 8.57Q67.97 8.57 67.46 8.90Q66.95 9.23 66.60 9.79L66.60 9.79Z" transform="translate(51, 5.196)"></path></svg>